HIERARCHY
ROOT Hips
{
	OFFSET -0.179506 -22.333345 2.821913
	CHANNELS 6 Xposition Yposition Zposition Zrotation Yrotation Xrotation 
	JOINT LeftUpLeg
	{
		OFFSET 6.951974 -9.140623 -0.681533
		CHANNELS 3 Zrotation Yrotation Xrotation
		JOINT LeftLeg
		{
			OFFSET 3.427654 -37.519855 -0.449580
			CHANNELS 3 Zrotation Yrotation Xrotation
			JOINT LeftFoot
			{
				OFFSET -1.359570 -39.796059 -4.369333
				CHANNELS 3 Zrotation Yrotation Xrotation
				JOINT LeftToe
				{
					OFFSET 2.635814 -5.579078 11.928840
					CHANNELS 3 Zrotation Yrotation Xrotation
					End Site
					{
						OFFSET 0.000000 0.000000 0.000000
					}
				}
			}
		}
	}
	JOINT RightUpLeg
	{
		OFFSET -6.767048 -9.052170 -0.431982
		CHANNELS 3 Zrotation Yrotation Xrotation
		JOINT RightLeg
		{
			OFFSET -3.829005 -38.256897 -0.885003
			CHANNELS 3 Zrotation Yrotation Xrotation
			JOINT RightFoot
			{
				OFFSET 1.577377 -39.841461 -4.231180
				CHANNELS 3 Zrotation Yrotation Xrotation
				JOINT RightToe
				{
					OFFSET -2.537174 -4.814398 12.334795
					CHANNELS 3 Zrotation Yrotation Xrotation
					End Site
					{
						OFFSET 0.000000 0.000000 0.000000
					}
				}
			}
		}
	}
	JOINT Spine
	{
		OFFSET -0.253288 10.896323 -2.669631
		CHANNELS 3 Zrotation Yrotation Xrotation
		JOINT Spine1
		{
			OFFSET 0.548704 13.518043 0.109247
			CHANNELS 3 Zrotation Yrotation Xrotation
			JOINT Spine2
			{
				OFFSET 0.145701 5.292222 2.542457
				CHANNELS 3 Zrotation Yrotation Xrotation
				JOINT Neck
				{
					OFFSET -0.277840 21.387037 -4.285703
					CHANNELS 3 Zrotation Yrotation Xrotation
					JOINT Head
					{
						OFFSET 0.515184 6.496960 5.134897
						CHANNELS 3 Zrotation Yrotation Xrotation
						End Site
						{
							OFFSET 0.000000 0.000000 0.000000
						}
					}
				}
				JOINT LeftShoulder
				{
					OFFSET 7.884473 12.174932 -3.408961
					CHANNELS 3 Zrotation Yrotation Xrotation
					JOINT LeftArm
					{
						OFFSET 9.097692 3.046888 -0.886815
						CHANNELS 3 Zrotation Yrotation Xrotation
						JOINT LeftForeArm
						{
							OFFSET 25.961220 -1.277207 -2.745643
							CHANNELS 3 Zrotation Yrotation Xrotation
							JOINT LeftHand
							{
								OFFSET 24.923361 0.898606 -0.117091
								CHANNELS 3 Zrotation Yrotation Xrotation
								End Site
								{
									OFFSET 0.000000 0.000000 0.000000
								}
							}
						}
					}
				}
				JOINT RightShoulder
				{
					OFFSET -8.175920 11.883285 -3.861528
					CHANNELS 3 Zrotation Yrotation Xrotation
					JOINT RightArm
					{
						OFFSET -9.601238 3.255117 -0.914307
						CHANNELS 3 Zrotation Yrotation Xrotation
						JOINT RightForeArm
						{
							OFFSET -25.374195 -1.332924 -2.140099
							CHANNELS 3 Zrotation Yrotation Xrotation
							JOINT RightHand
							{
								OFFSET -25.529810 0.777228 -0.555919
								CHANNELS 3 Zrotation Yrotation Xrotation
								End Site
								{
									OFFSET 0.000000 0.000000 0.000000
								}
							}
						}
					}
				}
			}
		}
	}
}
MOTION
Frames: 5
Frame Time: 0.033333
253.024292 -235.330460 44.376709 -142.773729 -0.292216 97.099718 33.025107 32.063582 -85.406692 -7.751807 24.033506 126.261554 0.931935 -8.485811 -37.707724 nan nan nan -23.620907 -31.233196 -94.545212 -0.954599 -16.987100 131.169414 9.666907 14.559073 -28.378111 nan nan nan -0.240497 4.593546 82.661392 2.296445 -1.567780 -14.880912 4.722821 -0.797572 -1.490063 -6.405240 0.213153 -25.445704 13.632754 -18.828782 -15.944591 -15.190664 -51.588460 -5.060404 -20.685950 -30.058473 5.512789 -11.878357 -8.739718 17.142553 32.692570 0.137378 16.711592 28.788691 51.349900 9.101937 5.032405 32.211826 -4.795727 16.071059 9.280105 30.508087 -31.980325 4.003387 34.948475 
253.014648 -235.293381 44.334568 -142.916696 -0.248458 97.141951 33.186390 32.262752 -85.245886 -7.674688 24.026490 126.352828 0.969246 -8.625614 -37.848615 nan nan nan -23.558477 -31.116095 -94.669072 -1.070663 -16.894046 131.270139 9.622889 14.703183 -28.136932 nan nan nan -0.263735 4.701926 82.417532 2.284312 -1.541315 -14.564156 4.787094 -0.854795 -1.635937 -6.763045 0.165219 -25.571836 13.525040 -18.622244 -15.360128 -15.190776 -51.787309 -5.017469 -20.443394 -29.702602 4.788391 -12.317149 -8.689326 17.301952 32.819792 -0.440606 17.146221 28.872579 51.924917 9.041765 4.860009 31.661875 -4.825916 16.715659 9.137338 30.741255 -31.682507 3.728985 34.407167 
252.988327 -235.256119 44.288605 -142.977263 -0.231388 97.119835 33.281390 32.370233 -85.126925 -7.615836 24.008504 126.448210 1.045111 -8.667535 -37.949867 nan nan nan -23.544765 -31.068656 -94.673790 -1.073245 -16.849041 131.326984 9.519595 14.639989 -27.954714 nan nan nan -0.266668 4.743016 82.342062 2.252972 -1.496487 -14.458596 4.799277 -0.888754 -1.690096 -6.867488 0.153509 -25.407387 13.436423 -18.417766 -15.225739 -15.212992 -51.775300 -4.980549 -20.524601 -29.641401 4.665877 -12.263619 -8.724471 17.500523 32.832280 -0.505563 17.331249 28.891723 51.926352 9.108870 4.922515 31.471405 -4.819129 16.715958 9.410616 30.919485 -31.505612 3.616930 34.143890 
252.990372 -235.228241 44.272808 -143.075145 -0.223910 97.195357 33.369108 32.522000 -85.040039 -7.635894 24.074024 126.463652 1.083049 -8.741264 -38.043013 nan nan nan -23.483361 -31.004027 -94.832771 -1.083701 -16.915431 131.350353 9.527439 14.610115 -28.482182 nan nan nan -0.289939 4.846324 82.241982 2.236939 -1.444389 -14.413818 4.790649 -0.896909 -1.778432 -6.921531 0.284168 -25.302834 13.312279 -18.289541 -15.055978 -15.299848 -51.850143 -4.883738 -20.584800 -29.623082 4.596191 -12.082596 -8.550409 17.693992 32.991161 -0.295766 17.545363 29.200006 51.947210 9.422520 4.948384 31.270590 -4.915097 16.437921 9.571690 31.164775 -31.203222 3.443931 33.985330 
252.987747 -235.203888 44.270012 -143.097625 -0.209735 97.217788 33.388836 32.587459 -85.028074 -7.692699 24.076153 126.455046 1.077747 -8.733936 -38.033906 nan nan nan -23.467131 -31.007594 -94.861458 -1.056486 -16.966293 131.389697 9.553604 14.655520 -28.479162 nan nan nan -0.281832 4.857879 82.178117 2.232259 -1.419286 -14.351319 4.792211 -0.898915 -1.814790 -7.029269 0.326930 -25.223223 13.185556 -18.156036 -15.003714 -15.362628 -51.898345 -4.831430 -20.582243 -29.653057 4.541179 -11.991105 -8.337367 17.710301 33.295683 -0.100966 17.759259 29.285745 51.952289 9.551333 4.870579 31.217309 -4.946016 16.464540 9.650312 31.320598 -31.226870 3.429097 33.820907 
